<?xml version="1.0" encoding="UTF-8"?>
<svg version="1.1" viewBox="0 0 2916.6 1658.6" xmlns="http://www.w3.org/2000/svg" xmlns:cc="http://creativecommons.org/ns#" xmlns:dc="http://purl.org/dc/elements/1.1/" xmlns:rdf="http://www.w3.org/1999/02/22-rdf-syntax-ns#" alt="contact image"
width="100%"
height="100%">
 <metadata>
  <rdf:RDF>
   <cc:Work rdf:about="">
    <dc:format>image/svg+xml</dc:format>
    <dc:type rdf:resource="http://purl.org/dc/dcmitype/StillImage"/>
    <dc:title/>
   </cc:Work>
  </rdf:RDF>
 </metadata>
 <defs>
  <filter id="filter3604" x="-.026275" y="-.048122" width="1.0526" height="1.0962" color-interpolation-filters="sRGB">
   <feGaussianBlur stdDeviation="30.337221"/>
  </filter>
 </defs>
 <g transform="translate(-223.83 -665.09)">
  <g transform="translate(195.35 -73.418)">
   <g filter="url(#filter3604)">
    <g transform="translate(103.54 -222.44)">
     <path d="m7.4791 1330.2 98.764-17.589-47.819 104.63z"/>
     <path d="m58.423 1417.3-60.673 32.086 9.7289-119.13z"/>
     <path d="m58.423 1417.3-5.4917 101.82-55.181-69.735z"/>
     <path d="m52.932 1519.1-53.436 60.511-1.7457-130.25z"/>
     <path d="m52.932 1519.1 33.95 76.275-87.385-15.764z"/>
     <path d="m86.881 1595.4-85.668 79.914-1.7174-95.678z"/>
     <path d="m86.881 1595.4 37.094 80.999-122.76-1.0849z"/>
     <path d="m40.85 1673.8-39.637 1.4405-0.3745 68.817z"/>
     <path d="m0.83881 1744.1 59.609-16.876-19.597-53.381z"/>
     <path d="m60.448 1727.2 0.62913 49.116-60.238-32.24z"/>
     <path d="m61.077 1776.3-62.321 66.548 2.0825-98.788z"/>
     <path d="m-1.2437 1842.9 85.002-29.64-22.682-36.908z"/>
     <path d="m58.423 1417.3 105.35-15.931-57.53-88.701z"/>
     <path d="m52.932 1519.1 74.42 7.3081-68.928-109.13z"/>
     <path d="m163.77 1401.3-36.421 125.06-68.928-109.13z"/>
     <path d="m123.98 1676.4-63.528 50.856-19.597-53.381z"/>
     <path d="m86.881 1595.4 40.471-68.967-74.42-7.3081z"/>
     <path d="m61.077 1776.3 57.603-10.418-58.233-38.697z"/>
     <path d="m118.68 1765.9 1.9235 46.14-36.845 1.1862-22.682-36.908z"/>
     <path d="m118.68 1765.9 5.295-89.553-63.528 50.856z"/>
     <path d="m106.24 1312.6 106.33-18.333-48.805 107.03z"/>
     <path d="m127.35 1526.4 42.309 69.59-82.779-0.6236z"/>
     <path d="m169.66 1596-45.685 80.375-37.094-80.999z"/>
     <path d="m123.98 1676.4 76.446 7.2036-81.741 82.349z"/>
     <path d="m200.42 1683.6 28.255 87.025-110-4.6759z"/>
     <path d="m228.68 1770.6-108.07 41.464-1.9235-46.14z"/>
     <path d="m120.6 1812 82.983-3.1451 25.089-38.319z"/>
     <path d="m203.59 1808.9 36.577 18.016-11.488-56.335z"/>
     <path d="m228.68 1770.6 53.415 21.198-41.927 35.136z"/>
     <path d="m169.66 1596 30.761 87.579-76.446-7.2036z"/>
     <path d="m163.77 1401.3 83.95 89.002-120.37 36.059z"/>
     <path d="m212.58 1294.3 86.907 71.008-135.71 36.026z"/>
     <path d="m299.48 1365.3-51.761 125.03-83.95-89.002z"/>
     <path d="m212.58 1294.3 121.33-35.319-34.426 106.33z"/>
     <path d="m299.48 1365.3 105.86-34.844-71.431-71.483z"/>
     <path d="m299.48 1365.3 71.858 89.531-123.62 35.497z"/>
     <path d="m405.34 1330.5-33.999 124.37-71.858-89.531z"/>
     <path d="m169.66 1596 78.062-105.65-120.37 36.059z"/>
     <path d="m169.66 1596 148.95-43.022-70.883-62.628z"/>
     <path d="m318.61 1553-118.18 130.6-30.761-87.579z"/>
     <path d="m371.34 1454.8-52.736 98.125-70.883-62.628z"/>
     <path d="m318.61 1553 28.762 130.92-146.95-0.321z"/>
     <path d="m347.37 1683.9-118.69 86.704-28.255-87.025z"/>
     <path d="m282.09 1791.8 65.277-107.9-118.69 86.704z"/>
     <path d="m240.16 1826.9 115.42 40.907-73.49-76.044z"/>
     <path d="m355.58 1867.8 143.95-26.44-178.65-10.854z"/>
     <path d="m282.09 1791.8 65.277-107.9 86.971 50.456z"/>
     <path d="m320.88 1830.5 113.46-96.197-152.25 57.447z"/>
     <path d="m434.34 1734.3 65.194 107.05-178.65-10.854z"/>
     <path d="m499.53 1841.4 176.82-11.1-156.12-80.151z"/>
     <path d="m520.24 1750.1-85.9-15.8 65.194 107.05z"/>
     <path d="m520.24 1750.1 93.069 1.7482 146.18 63.668z"/>
     <path d="m676.36 1830.3 83.136-14.735-239.25-65.416z"/>
     <path d="m759.49 1815.6 37.333-8.8985-183.52-54.77z"/>
     <path d="m613.31 1751.9 111.32-52.419 19.135 92.078z"/>
     <path d="m724.63 1699.5 72.196 107.19-53.061-15.11z"/>
     <path d="m318.61 1553 162.29-17.446-133.53 148.37z"/>
     <path d="m480.9 1535.5-46.558 198.82-86.971-50.456z"/>
     <path d="m371.34 1454.8 109.55 80.68-162.29 17.446z"/>
     <path d="m405.34 1330.5 75.556 205.05-109.55-80.68z"/>
     <path d="m480.9 1535.5 39.342 214.62-85.9-15.8z"/>
     <path d="m480.9 1535.5 132.41 216.37-93.069-1.7482z"/>
     <path d="m405.34 1330.5 101.43-41.003-86.711-67.832z"/>
     <path d="m333.91 1259 86.152-37.352-14.721 108.84z"/>
     <path d="m506.77 1289.5-25.877 246.06-75.556-205.05z"/>
     <path d="m420.06 1221.6 416.13-187.87-329.41 255.7z"/>
     <path d="m836.19 1033.8 38.269 6.425-42.415 50.224z"/>
     <path d="m874.46 1040.2 322.74 151.1-365.15-100.87z"/>
     <path d="m832.04 1090.4-325.27 199.05 329.41-255.7z"/>
     <path d="m480.9 1535.5 129.91-58.972-104.04-187.09z"/>
     <path d="m610.81 1476.5 2.4988 275.34-132.41-216.37z"/>
     <path d="m832.04 1090.4-221.23 386.13-104.04-187.09z"/>
     <path d="m610.81 1476.5 226.21-8.3294-223.71 283.67z"/>
     <path d="m837.02 1468.2-54.101-117.96-172.11 126.29z"/>
     <path d="m782.92 1350.3 49.122-259.84-221.23 386.13z"/>
     <path d="m1197.2 1191.3-193.53 39.659-171.62-140.53z"/>
     <path d="m1003.7 1230.9-190.16-37.686 18.538-102.85z"/>
     <path d="m1003.7 1230.9-81.018 30.149-109.14-67.835z"/>
     <path d="m922.64 1261.1-139.72 89.16 30.585-156.99z"/>
     <path d="m1003.7 1230.9-52.6 117.18-28.417-87.032z"/>
     <path d="m951.06 1348.1-36.907 187.35-77.132-67.264z"/>
     <path d="m837.02 1468.2 85.622-207.12 28.417 87.032z"/>
     <path d="m837.02 1468.2-54.101-117.96 139.72-89.16z"/>
     <path d="m724.63 1699.5 112.39-231.25-223.71 283.67z"/>
     <path d="m724.63 1699.5 189.52-163.99-77.132-67.264z"/>
     <path d="m796.82 1806.7 117.33-271.18-189.52 163.99z"/>
     <path d="m914.15 1535.5 149.04 88.247-266.37 182.93z"/>
     <path d="m1063.2 1623.7 10.096 162.24-276.47 20.687z"/>
     <path d="m1073.3 1786-36.533 66.873-239.93-46.186z"/>
     <path d="m1073.3 1786 62.892-137.29-72.988-24.952z"/>
     <path d="m951.06 1348.1 91.275 91.62-108.6 7.1696z"/>
     <path d="m1042.3 1439.7 42.8-36.165-21.212-103.13z"/>
     <path d="m951.06 1348.1 71.976-29.862 19.298 121.48z"/>
     <path d="m1023 1318.3-19.376-87.318-52.6 117.18z"/>
     <path d="m1023 1318.3 40.887-17.816-21.588 139.3z"/>
     <path d="m1063.9 1300.4-60.263-69.502 19.376 87.318z"/>
     <path d="m1070.3 1420.4-69.694 76.172-66.841-49.638 108.6-7.1696z"/>
     <path d="m1000.6 1496.5-41.392 61.951-45.032-23.025 19.582-88.564z"/>
     <path d="m1063.9 1300.4 133.27-109.16-193.53 39.659z"/>
     <path d="m1197.2 1191.3 168.38 122.32-301.65-13.157z"/>
     <path d="m1365.6 1313.6-89.967 138.27-211.68-151.43z"/>
     <path d="m1275.6 1451.9-190.47-48.293-21.212-103.13z"/>
     <path d="m1085.1 1403.6 120.81 77.332-1.9448-21.035 71.6-8.0035z"/>
     <path d="m1070.3 1420.4 14.864-16.8-42.8 36.165z"/>
     <path d="m1070.3 1420.4 30.981 40.081 50.978 29.758 53.719-9.3075-120.81-77.332z"/>
     <path d="m959.18 1558.5 193.04-68.284-50.978-29.758-30.981-40.081-69.694 76.172z"/>
     <path d="m1152.2 1490.2 45.041 18.752-12.807 83.212z"/>
     <path d="m1184.5 1592.2 35.838 75.448-84.118-18.953z"/>
     <path d="m1136.2 1648.7-72.988-24.952 89.034-133.51 32.234 101.96z"/>
     <path d="m1152.2 1490.2-193.04 68.284 104.01 65.223z"/>
     <path d="m1197.3 1509 8.6781-28.06 14.352 186.72-35.838-75.448z"/>
     <path d="m1365.6 1313.6 105.16 138.1-195.13 0.1719z"/>
     <path d="m1220.3 1667.6 85.454 28.58-232.46 89.759 62.892-137.29z"/>
     <path d="m1305.8 1696.2 54.329 25.413 39.138 61.589-40.339-37.433-63.392-10.034z"/>
     <path d="m1399.2 1783.2 4.2198 37.298-9.7705 28.962-50.6 38.162-86.619-26.007-14.92-20.089 3.3191-40.498 13.217-31.572 37.422-33.722 63.392 10.034z"/>
     <path d="m1343.1 1887.6-39.097 7.5479-84.551-7.0297 22.109-46.615 14.92 20.089z"/>
     <path d="m1219.4 1888.2-182.67-35.311 36.533-66.873z"/>
     <path d="m1073.3 1786 171.56 15.071 13.217-31.572 37.422-33.722 10.264-39.535z"/>
     <path d="m1073.3 1786 171.56 15.071-3.3191 40.498-22.109 46.615z"/>
     <path d="m950.2 1840.6 99.489 112.42 35.223-89.254z"/>
     <path d="m1049.7 1953.1 75.24 97.07-40.016-186.32z"/>
     <path d="m1167.2 1882.6-82.334-18.842 40.016 186.32z"/>
     <path d="m1167.2 1882.6 60.923 119.95-103.24 47.53z"/>
     <path d="m1228.2 2002.6 7.9486 17.083-0.095 44.778-2.7092 22.09-41.962 8.6896-66.423-45.111z"/>
     <path d="m1167.2 1882.6 68.871 137.04 0.4159-130.51-151.62-25.364z"/>
     <path d="m1204 1459.9 65.837 133.71 200.89-141.88-195.13 0.1719z"/>
     <path d="m1269.8 1593.6 725.1 605.58-17.949-748.33-506.25 0.86z"/>
     <path d="m2767.4 1444.7-273.17 2.2007 203.59 133.28z"/>
     <path d="m2494.2 1446.9-517.25 3.9648 17.949 748.33 702.89-619.01z"/>
     <path d="m1769.3 2019-452.22 388.17-58.903 125.9-21.643-643.9 67.437 6.0087 39.097-7.5479 50.6-38.162 9.7705-28.962-4.2198-37.298-39.138-61.589-54.329-25.413-85.454-28.58-16.297-207.75 65.837 133.71z"/>
     <path d="m1769.3 2019-499.46-425.41 725.1 605.58z"/>
     <path d="m1994.9 2199.2 10.338 341.01-747.09-7.1043 58.903-125.9 452.22-388.17z"/>
     <path d="m2209.9 2008.3 498.86 417.56 59.974 120.89-763.47-6.6113-10.338-341.01z"/>
     <path d="m2209.9 2008.3 505.69 398.05 53.142 140.4-59.974-120.89z"/>
     <path d="m2209.9 2008.3 553.62 7.4946 5.2107 530.95-53.142-140.4z"/>
     <path d="m2767.4 1444.7-3.873 571.16-553.62-7.4946 487.91-428.18z"/>
     <path d="m420.06 1221.6 86.711 67.832-101.43 41.003z"/>
     <path d="m520.24 1750.1 93.069 1.7482 146.18 63.668z"/>
     <path d="m1305.8 1696.2 54.329 25.413 39.138 61.589-40.339-37.433-63.392-10.034z"/>
     <path d="m1184.5 1592.2 35.838 75.448-84.118-18.953z"/>
     <path d="m951.06 1348.1-114.04 120.09 77.132 67.264z"/>
     <path d="m1063.9 1300.4 21.212 103.13-42.8 36.165z"/>
     <path d="m2209.9 2008.3 505.69 398.05 53.142 140.4-59.974-120.89z"/>
     <path d="m1233.3 2086.6 10.328-1.4251-7.1078-195.96-0.5109 175.29z"/>
     <path d="m1977 1450.8 790.42-6.1655-69.587 135.48-702.89 619.01z"/>
    </g>
    <path d="m2080.5 1228.4 790.42-6.1655-69.587 135.48-702.89 619.01z"/>
   </g>
   <g transform="translate(103.54 -222.44)">
    <g>
     <path d="m7.4791 1330.2 98.764-17.589-47.819 104.63z" fill="#846853"/>
     <path d="m58.423 1417.3-60.673 32.086 9.7289-119.13z" fill="#99745a"/>
     <path d="m58.423 1417.3-5.4917 101.82-55.181-69.735z" fill="#a57861"/>
     <path d="m52.932 1519.1-53.436 60.511-1.7457-130.25z" fill="#b0836c"/>
     <path d="m52.932 1519.1 33.95 76.275-87.385-15.764z" fill="#ad836f"/>
     <path d="m86.881 1595.4-85.668 79.914-1.7174-95.678z" fill="#b08a75"/>
     <path d="m86.881 1595.4 37.094 80.999-122.76-1.0849z" fill="#ac8772"/>
     <path d="m40.85 1673.8-39.637 1.4405-0.3745 68.817z" fill="#ab8878"/>
     <path d="m0.83881 1744.1 59.609-16.876-19.597-53.381z" fill="#ac8878"/>
     <path d="m60.448 1727.2 0.62913 49.116-60.238-32.24z" fill="#907d6f"/>
     <path d="m61.077 1776.3-62.321 66.548 2.0825-98.788z" fill="#8a7e72"/>
     <path d="m-1.2437 1842.9 85.002-29.64-22.682-36.908z" fill="#7e776f"/>
     <path d="m58.423 1417.3 105.35-15.931-57.53-88.701z" fill="#96725c"/>
     <path d="m52.932 1519.1 74.42 7.3081-68.928-109.13z" fill="#ab826c"/>
     <path d="m163.77 1401.3-36.421 125.06-68.928-109.13z" fill="#a57b63"/>
     <path d="m123.98 1676.4-63.528 50.856-19.597-53.381z" fill="#a68572"/>
     <path d="m86.881 1595.4 40.471-68.967-74.42-7.3081z" fill="#b08773"/>
     <path d="m61.077 1776.3 57.603-10.418-58.233-38.697z" fill="#90786c"/>
     <path d="m118.68 1765.9 1.9235 46.14-36.845 1.1862-22.682-36.908z" fill="#807269"/>
     <path d="m118.68 1765.9 5.295-89.553-63.528 50.856z" fill="#9a7e6e"/>
     <path d="m106.24 1312.6 106.33-18.333-48.805 107.03z" fill="#8d6f57"/>
     <path d="m127.35 1526.4 42.309 69.59-82.779-0.6236z" fill="#b08572"/>
     <path d="m169.66 1596-45.685 80.375-37.094-80.999z" fill="#ae8873"/>
     <path d="m123.98 1676.4 76.446 7.2036-81.741 82.349z" fill="#987b6b"/>
     <path d="m200.42 1683.6 28.255 87.025-110-4.6759z" fill="#8e786d"/>
     <path d="m228.68 1770.6-108.07 41.464-1.9235-46.14z" fill="#7c6f66"/>
     <path d="m120.6 1812 82.983-3.1451 25.089-38.319z" fill="#716662"/>
     <path d="m203.59 1808.9 36.577 18.016-11.488-56.335z" fill="#6d645f"/>
     <path d="m228.68 1770.6 53.415 21.198-41.927 35.136z" fill="#7b726b"/>
     <path d="m169.66 1596 30.761 87.579-76.446-7.2036z" fill="#b08b78"/>
     <path d="m163.77 1401.3 83.95 89.002-120.37 36.059z" fill="#b0836c"/>
     <path d="m212.58 1294.3 86.907 71.008-135.71 36.026z" fill="#96725c"/>
     <path d="m299.48 1365.3-51.761 125.03-83.95-89.002z" fill="#a07662"/>
     <path d="m212.58 1294.3 121.33-35.319-34.426 106.33z" fill="#8e6f5a"/>
     <path d="m299.48 1365.3 105.86-34.844-71.431-71.483z" fill="#93705a"/>
     <path d="m299.48 1365.3 71.858 89.531-123.62 35.497z" fill="#ab7e67"/>
     <path d="m405.34 1330.5-33.999 124.37-71.858-89.531z" fill="#a07562"/>
     <path d="m169.66 1596 78.062-105.65-120.37 36.059z" fill="#ac826c"/>
     <path d="m169.66 1596 148.95-43.022-70.883-62.628z" fill="#a77864"/>
     <path d="m318.61 1553-118.18 130.6-30.761-87.579z" fill="#ac816e"/>
     <path d="m371.34 1454.8-52.736 98.125-70.883-62.628z" fill="#aa7b67"/>
     <path d="m318.61 1553 28.762 130.92-146.95-0.321z" fill="#b18c79"/>
     <path d="m347.37 1683.9-118.69 86.704-28.255-87.025z" fill="#9e8376"/>
     <path d="m282.09 1791.8 65.277-107.9-118.69 86.704z" fill="#8f7b6f"/>
     <path d="m240.16 1826.9 115.42 40.907-73.49-76.044z" fill="#847166"/>
     <path d="m355.58 1867.8 143.95-26.44-178.65-10.854z" fill="#947f72"/>
     <path d="m282.09 1791.8 65.277-107.9 86.971 50.456z" fill="#a18476"/>
     <path d="m320.88 1830.5 113.46-96.197-152.25 57.447z" fill="#88766a"/>
     <path d="m434.34 1734.3 65.194 107.05-178.65-10.854z" fill="#917e70"/>
     <path d="m499.53 1841.4 176.82-11.1-156.12-80.151z" fill="#9d8a7d"/>
     <path d="m520.24 1750.1-85.9-15.8 65.194 107.05z" fill="#9f8578"/>
    </g>
    <path d="m520.24 1750.1 93.069 1.7482 146.18 63.668z" fill="none"/>
    <g>
     <path d="m676.36 1830.3 83.136-14.735-239.25-65.416z" fill="#a49089"/>
     <path d="m759.49 1815.6 37.333-8.8985-183.52-54.77z" fill="#a38a7f"/>
     <path d="m613.31 1751.9 111.32-52.419 19.135 92.078z" fill="#af8f82"/>
     <path d="m724.63 1699.5 72.196 107.19-53.061-15.11z" fill="#aa8b7d"/>
     <path d="m318.61 1553 162.29-17.446-133.53 148.37z" fill="#b58a77"/>
     <path d="m480.9 1535.5-46.558 198.82-86.971-50.456z" fill="#b08773"/>
     <path d="m371.34 1454.8 109.55 80.68-162.29 17.446z" fill="#b28570"/>
     <path d="m405.34 1330.5 75.556 205.05-109.55-80.68z" fill="#ae7b66"/>
     <path d="m480.9 1535.5 39.342 214.62-85.9-15.8z" fill="#b08c79"/>
     <path d="m480.9 1535.5 132.41 216.37-93.069-1.7482z" fill="#b18c79"/>
    </g>
    <path d="m405.34 1330.5 101.43-41.003-86.711-67.832z" fill="none"/>
    <g>
     <path d="m333.91 1259 86.152-37.352-14.721 108.84z" fill="#8f6e5d"/>
     <path d="m506.77 1289.5-25.877 246.06-75.556-205.05z" fill="#b1836c"/>
     <path d="m420.06 1221.6 416.13-187.87-329.41 255.7z" fill="#8f6e5b"/>
     <path d="m836.19 1033.8 38.269 6.425-42.415 50.224z" fill="#9c9087"/>
     <path d="m874.46 1040.2 322.74 151.1-365.15-100.87z" fill="#c4a79f"/>
     <path d="m832.04 1090.4-325.27 199.05 329.41-255.7z" fill="#8e786d"/>
     <path d="m480.9 1535.5 129.91-58.972-104.04-187.09z" fill="#bb8770"/>
     <path d="m610.81 1476.5 2.4988 275.34-132.41-216.37z" fill="#c2927b"/>
     <path d="m832.04 1090.4-221.23 386.13-104.04-187.09z" fill="#b2836f"/>
     <path d="m610.81 1476.5 226.21-8.3294-223.71 283.67z" fill="#cba18b"/>
     <path d="m837.02 1468.2-54.101-117.96-172.11 126.29z" fill="#d4a895"/>
     <path d="m782.92 1350.3 49.122-259.84-221.23 386.13z" fill="#c69881"/>
     <path d="m1197.2 1191.3-193.53 39.659-171.62-140.53z" fill="#cca391"/>
     <path d="m1003.7 1230.9-190.16-37.686 18.538-102.85z" fill="#c3937f"/>
     <path d="m1003.7 1230.9-81.018 30.149-109.14-67.835z" fill="#d2a393"/>
     <path d="m922.64 1261.1-139.72 89.16 30.585-156.99z" fill="#d1a393"/>
     <path d="m1003.7 1230.9-52.6 117.18-28.417-87.032z" fill="#dbb3a5"/>
    </g>
    <path d="m951.06 1348.1-36.907 187.35-77.132-67.264z" fill="none"/>
    <g>
     <path d="m837.02 1468.2 85.622-207.12 28.417 87.032z" fill="#d5a193"/>
     <path d="m837.02 1468.2-54.101-117.96 139.72-89.16z" fill="#d2a292"/>
     <path d="m724.63 1699.5 112.39-231.25-223.71 283.67z" fill="#c59485"/>
     <path d="m724.63 1699.5 189.52-163.99-77.132-67.264z" fill="#d8af9d"/>
     <path d="m796.82 1806.7 117.33-271.18-189.52 163.99z" fill="#d5b5a6"/>
     <path d="m914.15 1535.5 149.04 88.247-266.37 182.93z" fill="#d19e89"/>
     <path d="m1063.2 1623.7 10.096 162.24-276.47 20.687z" fill="#d6ab9a"/>
     <path d="m1073.3 1786-36.533 66.873-239.93-46.186z" fill="#b99388"/>
     <path d="m1073.3 1786 62.892-137.29-72.988-24.952z" fill="#daac9c"/>
     <path d="m951.06 1348.1 91.275 91.62-108.6 7.1696z" fill="#a56c5f"/>
    </g>
    <path d="m1042.3 1439.7 42.8-36.165-21.212-103.13z" fill="none"/>
    <g>
     <path d="m951.06 1348.1 71.976-29.862 19.298 121.48z" fill="#c09285"/>
     <path d="m1023 1318.3-19.376-87.318-52.6 117.18z" fill="#ddbcb5"/>
     <path d="m1023 1318.3 40.887-17.816-21.588 139.3z" fill="#ce9989"/>
     <path d="m1063.9 1300.4-60.263-69.502 19.376 87.318z" fill="#c28979"/>
     <path d="m1070.3 1420.4-69.694 76.172-66.841-49.638 108.6-7.1696z" fill="#885750"/>
     <path d="m1000.6 1496.5-41.392 61.951-45.032-23.025 19.582-88.564z" fill="#936359"/>
     <path d="m1063.9 1300.4 133.27-109.16-193.53 39.659z" fill="#d7a898"/>
     <path d="m1197.2 1191.3 168.38 122.32-301.65-13.157z" fill="#dbafa2"/>
     <path d="m1365.6 1313.6-89.967 138.27-211.68-151.43z" fill="#d5a597"/>
     <path d="m1275.6 1451.9-190.47-48.293-21.212-103.13z" fill="#b88375"/>
     <path d="m1085.1 1403.6 120.81 77.332-1.9448-21.035 71.6-8.0035z" fill="#a46c61"/>
    </g>
    <path d="m1070.3 1420.4 14.864-16.8-42.8 36.165z" fill="none"/>
    <g>
     <path d="m1070.3 1420.4 30.981 40.081 50.978 29.758 53.719-9.3075-120.81-77.332z" fill="#57302a"/>
     <path d="m959.18 1558.5 193.04-68.284-50.978-29.758-30.981-40.081-69.694 76.172z" fill="#532a24"/>
     <path d="m1152.2 1490.2 45.041 18.752-12.807 83.212z" fill="#381615"/>
    </g>
    <path d="m1184.5 1592.2 35.838 75.448-84.118-18.953z" fill="none"/>
    <g>
     <path d="m1136.2 1648.7-72.988-24.952 89.034-133.51 32.234 101.96z" fill="#4d2722"/>
     <path d="m1152.2 1490.2-193.04 68.284 104.01 65.223z" fill="#6a443c"/>
     <path d="m1197.3 1509 8.6781-28.06 14.352 186.72-35.838-75.448z" fill="#5e3730"/>
     <path d="m1365.6 1313.6 105.16 138.1-195.13 0.1719z" fill="#daa796"/>
     <path d="m1220.3 1667.6 85.454 28.58-232.46 89.759 62.892-137.29z" fill="#d3a596"/>
    </g>
    <path d="m1305.8 1696.2 54.329 25.413 39.138 61.589-40.339-37.433-63.392-10.034z" fill="none"/>
    <g>
     <path d="m1399.2 1783.2 4.2198 37.298-9.7705 28.962-50.6 38.162-86.619-26.007-14.92-20.089 3.3191-40.498 13.217-31.572 37.422-33.722 63.392 10.034z" fill="#dab8b3"/>
     <path d="m1343.1 1887.6-39.097 7.5479-84.551-7.0297 22.109-46.615 14.92 20.089z" fill="#c49f95"/>
     <path d="m1219.4 1888.2-182.67-35.311 36.533-66.873z" fill="#b38979"/>
     <path d="m1073.3 1786 171.56 15.071 13.217-31.572 37.422-33.722 10.264-39.535z" fill="#dab2a8"/>
     <path d="m1073.3 1786 171.56 15.071-3.3191 40.498-22.109 46.615z" fill="#cca294"/>
     <path d="m950.2 1840.6 99.489 112.42 35.223-89.254z" fill="#7a5856"/>
     <path d="m1049.7 1953.1 75.24 97.07-40.016-186.32z" fill="#7b564d"/>
     <path d="m1167.2 1882.6-82.334-18.842 40.016 186.32z" fill="#9c6b66"/>
     <path d="m1167.2 1882.6 60.923 119.95-103.24 47.53z" fill="#b4736d"/>
     <path d="m1228.2 2002.6 7.9486 17.083-0.095 44.778-2.7092 22.09-41.962 8.6896-66.423-45.111z" fill="#ae736b"/>
     <path d="m1167.2 1882.6 68.871 137.04 0.4159-130.51-151.62-25.364z" fill="#8d5c55"/>
     <path d="m1204 1459.9 65.837 133.71 200.89-141.88-195.13 0.1719z" fill="#d9d8de"/>
     <path d="m1269.8 1593.6 725.1 605.58-17.949-748.33-506.25 0.86z" fill="#e0e1e6"/>
    </g>
    <path d="m2767.4 1444.7-273.17 2.2007 203.59 133.28z" fill="none"/>
    <path d="m2494.2 1446.9-517.25 3.9648 17.949 748.33 702.89-619.01z" fill="none"/>
    <g>
     <path d="m1769.3 2019-452.22 388.17-58.903 125.9-21.643-643.9 67.437 6.0087 39.097-7.5479 50.6-38.162 9.7705-28.962-4.2198-37.298-39.138-61.589-54.329-25.413-85.454-28.58-16.297-207.75 65.837 133.71z" fill="#d2d2da"/>
     <path d="m1769.3 2019-499.46-425.41 725.1 605.58z" fill="#afb2bb"/>
     <path d="m1994.9 2199.2 10.338 341.01-747.09-7.1043 58.903-125.9 452.22-388.17z" fill="#d9dce3"/>
     <path d="m2209.9 2008.3 498.86 417.56 59.974 120.89-763.47-6.6113-10.338-341.01z" fill="#dcdfe6"/>
     <path d="m2209.9 2008.3 505.69 398.05 53.142 140.4-59.974-120.89z" fill="#e3e4ea"/>
     <path d="m2209.9 2008.3 553.62 7.4946 5.2107 530.95-53.142-140.4z" fill="#dfe3ea"/>
     <path d="m2767.4 1444.7-3.873 571.16-553.62-7.4946 487.91-428.18z" fill="#e4e5ea"/>
     <path d="m420.06 1221.6 86.711 67.832-101.43 41.003z" fill="#8c6955"/>
     <path d="m520.24 1750.1 93.069 1.7482 146.18 63.668z" fill="#ac8c7d"/>
     <path d="m1305.8 1696.2 54.329 25.413 39.138 61.589-40.339-37.433-63.392-10.034z" fill="#bf887f"/>
     <path d="m1184.5 1592.2 35.838 75.448-84.118-18.953z" fill="#401818"/>
     <path d="m951.06 1348.1-114.04 120.09 77.132 67.264z" fill="#d19082"/>
     <path d="m1063.9 1300.4 21.212 103.13-42.8 36.165z" fill="#bb8f82"/>
     <path d="m2209.9 2008.3 505.69 398.05 53.142 140.4-59.974-120.89z" fill="#afb2bb"/>
     <path d="m1233.3 2086.6 10.328-1.4251-7.1078-195.96-0.5109 175.29z" fill="#795f60"/>
    </g>
    <path d="m1977 1450.8 790.42-6.1655-69.587 135.48-702.89 619.01z" fill-opacity="0"/>
   </g>
   <path d="m2080.5 1228.4 790.42-6.1655-69.587 135.48-702.89 619.01z" fill="#f9f9f9"/>
  </g>
 </g>
</svg>
